<?xml version="1.0" encoding="utf-8"?>
<!-- Generator: Adobe Illustrator 23.0.6, SVG Export Plug-In . SVG Version: 6.00 Build 0)  -->
<svg version="1.1" id="Layer_1" xmlns="http://www.w3.org/2000/svg" xmlns:xlink="http://www.w3.org/1999/xlink" x="0px" y="0px"
	 viewBox="0 0 1224 792" style="enable-background:new 0 0 1224 792;" xml:space="preserve">
<style type="text/css">
	.st0{fill:#F0E7DC;}
	.st1{fill:#FFFFFF;}
	.st2{fill:#3500F5;}
	.st3{fill:#FE000E;}
	.st4{fill:#FFF641;}
</style>
<g>
	<rect class="st0" width="1224" height="792"/>
</g>
<g>
	<path class="st1" d="M1131.98,725.04H318.96c-29.13,0-52.96-23.83-52.96-52.96V110.96C266,81.83,289.83,58,318.96,58h813.02
		c29.13,0,52.96,23.83,52.96,52.96v561.13C1184.93,701.21,1161.1,725.04,1131.98,725.04z"/>
</g>
<g>
	<g>
		<path class="st2" d="M356.32,104.26c-2.05,10.59-3.81,23.22,3.55,32.25c3.84,4.7,9.77,7.01,15.56,8.2
			c6.78,1.39,13.8,1.89,20.72,1.8c7.13-0.09,14.26-0.87,21.28-2.14c7.02-1.26,13.82-3.51,20.84-4.72
			c5.42-0.93,11.04-0.59,15.69,2.22c3.58,2.16,6.24,5.46,8.22,9.24c4.28,8.17,5.27,18.11,4.57,27.26
			c-0.93,12.12-3.81,24.22-2.29,36.42c0.74,5.99,2.51,11.85,5.91,16.89c3.45,5.12,8.23,9.17,13.51,12.3
			c10.96,6.51,24.04,9.91,36.76,9.95c12.28,0.03,24.62-3.25,34.85-10.14c9.35-6.29,16.83-15.14,21.08-25.61
			c1.02-2.5,1.81-5.09,2.39-7.73c0.69-3.14-4.13-4.48-4.82-1.33c-4.78,21.82-24.83,37.25-46.58,39.47c-12.24,1.25-24.86-0.97-36-6.2
			c-5.18-2.43-10.1-5.52-14.04-9.71c-3.85-4.1-6.28-9.16-7.48-14.63c-2.56-11.64,0-23.91,1.3-35.55c1.08-9.62,0.76-19.59-2.59-28.77
			c-3.13-8.56-9.07-16.23-18.19-18.7c-6.66-1.81-13.55-0.42-20.08,1.24c-6.63,1.68-13.24,3.27-20.03,4.18
			c-6.85,0.93-13.8,1.28-20.71,0.95c-6.14-0.29-12.56-0.89-18.38-2.99c-4.76-1.72-8.67-5.06-10.39-9.9
			c-1.76-4.96-1.61-10.36-1.02-15.51c0.29-2.49,0.73-4.95,1.21-7.41c0.26-1.32-0.37-2.7-1.75-3.08
			C358.17,102.18,356.57,102.93,356.32,104.26L356.32,104.26z"/>
	</g>
</g>
<g>
	<g>
		<path class="st2" d="M1037.23,571.79c-8.63-19-32.62-29.08-52.22-21.94c-19.77,7.2-30.6,26.69-42.41,42.74
			c-3,4.07-6.13,8.07-9.62,11.74c-3.9,4.11-8.5,8.02-13.98,9.78c-4.74,1.52-9.81,1.2-14.27-1.02c-4.44-2.22-8.14-5.78-11.07-9.75
			c-3.12-4.25-5.61-8.98-7.43-13.92c-1.95-5.3-3.52-10.72-5.38-16.05c-3.69-10.58-8.77-21.29-18.62-27.43
			c-9.69-6.04-22.28-6.78-32.64-2.05c-10.02,4.58-17.31,14.76-19.01,25.57c-0.44,2.77-0.58,5.54-0.31,8.33
			c0.13,1.34,1.06,2.5,2.5,2.5c1.25,0,2.63-1.15,2.5-2.5c-0.97-10.14,3.6-20.71,11.92-26.71c8.48-6.12,20.17-6.96,29.58-2.44
			c9.82,4.72,15.04,14.41,18.62,24.25c3.71,10.22,6.15,20.99,12.08,30.25c5.53,8.63,13.95,16.45,24.71,16.92
			c11.82,0.52,21.25-8.22,28.32-16.68c6.56-7.85,12.1-16.46,18.18-24.66c5.64-7.62,11.94-15.17,20.06-20.25
			c8.13-5.09,17.63-7.15,27.08-5.17c9.22,1.93,17.99,7.13,23.53,14.84c1.39,1.94,2.58,4.02,3.57,6.19c0.56,1.23,2.34,1.53,3.42,0.9
			C1037.59,574.48,1037.79,573.03,1037.23,571.79L1037.23,571.79z"/>
	</g>
</g>
<g>
	<g>
		<path class="st3" d="M495.85,440.37c-7.61-1.22-15.85-2.46-23.33,0.13c-7.84,2.71-12.6,9.29-15.94,16.55
			c-6.36,13.81-8.76,29.34-7.08,44.44c1.66,15,7.07,29.6,16.27,41.62c8.97,11.72,21,20.8,34.58,26.53c13.73,5.79,28.86,8.02,43.65,6
			c8.23-1.12,16.27-3.6,23.46-7.81c6.29-3.68,11.88-8.55,16.64-14.06c9.82-11.38,16.59-25.33,21.03-39.61
			c4.84-15.55,6.72-32.91,0.13-48.25c-5.88-13.7-18.23-23.29-31.81-28.68c-16.16-6.41-34.04-6.38-51.09-4.64
			c-4.53,0.46-9.05,1.05-13.57,1.66c-1.34,0.18-2.07,1.9-1.75,3.08c0.4,1.44,1.73,1.93,3.08,1.75c16.98-2.31,34.63-4.15,51.53-0.28
			c12.91,2.96,25.62,9.55,33.81,20.21c9.31,12.14,10.51,27.89,7.72,42.48c-2.73,14.23-8.4,28.3-16.36,40.41
			c-7.54,11.47-17.96,21.32-31.1,25.88c-13.74,4.77-29.02,4.64-42.98,0.87c-13.2-3.57-25.51-10.44-35.34-19.95
			c-10.09-9.75-17.16-22.15-20.72-35.7c-3.6-13.71-3.62-28.35,0.12-42.03c1.83-6.69,4.41-13.74,8.64-19.32
			c2.07-2.74,4.81-5.01,8.06-6.2c3.31-1.21,6.8-1.52,10.31-1.43c3.6,0.09,7.17,0.6,10.73,1.17c1.33,0.21,2.69-0.34,3.08-1.75
			C497.93,442.25,497.19,440.58,495.85,440.37L495.85,440.37z"/>
	</g>
</g>
<g>
	<g>
		<path class="st3" d="M746.36,123.51c-2.39-2.85-6.55-3.26-9.87-1.97c-3.91,1.52-6.26,4.98-7.32,8.94
			c-1.14,4.24-1.14,8.83-1.32,13.19c-0.2,4.74-0.27,9.48-0.11,14.22c0.56,17.17,4.2,34.2,13.34,48.92
			c7.82,12.59,18.85,23.14,31.65,30.59c12.93,7.53,27.7,11.89,42.69,12.1c15.38,0.21,30.71-3.82,44.26-11.03
			c13.51-7.19,25.31-17.66,33.85-30.38c8.96-13.35,14.05-29.37,14.24-45.47c0.19-16.24-4.96-32.18-15.62-44.55
			c-10.36-12.03-24.9-19.96-39.97-24.46c-18.19-5.43-37.48-5.82-56.31-5.22c-4.83,0.15-9.65,0.38-14.48,0.6c-3.2,0.15-3.22,5.15,0,5
			c18.57-0.86,37.42-1.79,55.84,1.32c15,2.53,29.89,7.86,41.96,17.33c5.78,4.53,10.86,9.97,14.72,16.23
			c3.95,6.42,6.52,13.56,7.85,20.97c2.64,14.77,0.16,30.54-6.06,44.13c-6.02,13.17-15.62,24.62-27.31,33.14
			c-11.66,8.51-25.25,14.26-39.53,16.48c-13.87,2.15-28.09,0.49-41.18-4.51c-12.94-4.94-24.62-13.15-33.82-23.47
			c-9.87-11.08-16.31-24.48-19.14-39.02c-1.72-8.83-2.18-17.87-2.05-26.85c0.06-4.42,0.24-8.85,0.59-13.26
			c0.25-3.13,0.73-7.21,3.34-9.34c0.93-0.76,2.23-1.25,3.31-1.3c1.31-0.06,2.07,0.22,2.9,1.21c0.87,1.04,2.64,0.9,3.54,0
			C747.38,126.03,747.23,124.55,746.36,123.51L746.36,123.51z"/>
	</g>
</g>
<g>
	<g>
		<path class="st3" d="M1098.66,448.74c-3.04,11.2,2.09,23.76,11.81,29.99c9.83,6.3,23.04,4.39,31.75-2.95
			c4.83-4.07,7.69-9.85,8.89-15.99c1.32-6.76,1.28-14.01,0.6-20.84c-0.67-6.74-2.56-13.38-7.26-18.46c-4.01-4.33-9.63-7.19-15.47-8
			c-13.96-1.94-26.72,8.74-28.3,22.54c-0.15,1.34,1.26,2.5,2.5,2.5c1.48,0,2.35-1.15,2.5-2.5c1.11-9.69,10.02-17.82,19.78-17.82
			c4.8,0,9.69,1.74,13.37,4.83c4.34,3.64,6.54,8.63,7.5,14.14c1.03,5.91,1.02,12.29,0.5,18.26c-0.47,5.37-1.92,11.02-5.52,15.18
			c-6.03,6.98-16.72,10.09-25.36,6.38c-9.67-4.15-15.23-15.84-12.49-25.95C1104.33,446.96,1099.5,445.63,1098.66,448.74
			L1098.66,448.74z"/>
	</g>
</g>
<g>
	<g>
		<path class="st4" d="M698.44,263.43c-25.87,16.88-51.73,33.77-77.6,50.65c-7.37,4.81-14.74,9.62-22.11,14.43
			c-1.89,1.23-1.39,4.93,1.26,4.66c21.96-2.25,44.16-1.03,65.89,2.65c22.02,3.73,43.59,9.82,64.69,17.07
			c11.92,4.09,23.7,8.56,35.4,13.23c2.13,0.85,3.8-1.93,2.82-3.67c-15.1-26.99-30.21-53.98-45.31-80.97
			c-4.3-7.69-8.61-15.38-12.91-23.07c-1.57-2.81-5.89-0.29-4.32,2.52c15.1,26.99,30.21,53.98,45.31,80.97
			c4.3,7.69,8.61,15.38,12.91,23.07c0.94-1.22,1.88-2.45,2.82-3.67c-20.93-8.35-42.14-16.08-63.86-22.11
			c-21.51-5.98-43.57-10.29-65.89-11.68c-12.52-0.78-25.09-0.61-37.57,0.66c0.42,1.55,0.84,3.11,1.26,4.66
			c25.87-16.88,51.73-33.77,77.6-50.65c7.37-4.81,14.74-9.62,22.11-14.43C703.65,266,701.14,261.67,698.44,263.43L698.44,263.43z"/>
	</g>
</g>
<g>
	<g>
		<path class="st4" d="M701.43,611.85c1.34,21.4,1.01,42.9-1.03,64.25c-0.57,5.97-1.27,11.93-2.11,17.86
			c-0.16,1.12,0.11,2.21,1.15,2.82c0.97,0.57,2.22,0.38,3.03-0.39c19.88-18.95,41.12-36.47,63.54-52.34
			c6.37-4.5,12.83-8.87,19.37-13.12c1.45-0.94,1.79-3.46,0-4.32c-20.59-9.8-41.59-18.73-62.93-26.77c-6-2.26-12.02-4.44-18.07-6.56
			c-1.27-0.45-2.73,0.51-3.08,1.75c-0.38,1.38,0.47,2.63,1.75,3.08c21.12,7.39,41.93,15.64,62.36,24.77
			c5.85,2.62,11.67,5.3,17.45,8.06c0-1.44,0-2.88,0-4.32c-23.41,15.16-45.71,32.03-66.67,50.44c-5.86,5.15-11.61,10.42-17.26,15.8
			c1.39,0.81,2.79,1.62,4.18,2.43c3.05-21.54,4.45-43.29,4.06-65.05c-0.11-6.14-0.36-12.27-0.75-18.4
			C706.23,608.66,701.22,608.63,701.43,611.85L701.43,611.85z"/>
	</g>
</g>
<g>
	<g>
		<path class="st4" d="M299.1,301.17c-3.1,28.51-2.27,57.38,2.36,85.69c1.31,8.04,2.95,16.03,4.88,23.95
			c0.55,2.25,3.4,2.25,4.57,0.6c8.47-11.99,19.12-22.22,29.55-32.47c11.34-11.14,22.68-22.28,34.02-33.42
			c5.67-5.57,11.35-11.13,17.01-16.71c1.16-1.15,2.25-2.4,2.18-4.15c-0.08-1.98-1.58-3.43-3.24-4.29c-3.02-1.57-6.26-2.82-9.4-4.13
			c-12.38-5.15-25.1-9.42-37.58-14.31c-13.96-5.47-27.67-11.87-39.65-20.98c-1.08-0.82-2.8-0.17-3.42,0.9
			c-0.75,1.28-0.18,2.6,0.9,3.42c21.11,16.06,47,23.45,71.37,32.95c3.01,1.18,6.02,2.38,8.99,3.66c1.49,0.64,2.96,1.29,4.44,1.96
			c0.61,0.28,1.24,0.54,1.84,0.85c0.22,0.11,0.46,0.3,0.68,0.38c0.29,0.33,0.33,0.32,0.1-0.05c0.1-0.67,0.13-0.87,0.1-0.59
			c-0.24-0.04-1.51,1.51-1.72,1.72c-0.65,0.64-1.3,1.28-1.95,1.91c-1.42,1.39-2.84,2.78-4.25,4.18c-2.84,2.78-5.67,5.57-8.51,8.35
			c-10.99,10.79-21.97,21.58-32.96,32.37c-11.57,11.37-23.42,22.61-32.81,35.92c1.52,0.2,3.05,0.4,4.57,0.6
			c-6.73-27.58-9.68-56.03-8.75-84.4c0.26-7.98,0.83-15.96,1.7-23.9c0.15-1.34-1.25-2.5-2.5-2.5
			C300.13,298.67,299.25,299.82,299.1,301.17L299.1,301.17z"/>
	</g>
</g>
</svg>
