<?xml version="1.0" encoding="utf-8"?>
<!-- Generator: Adobe Illustrator 23.0.6, SVG Export Plug-In . SVG Version: 6.00 Build 0)  -->
<svg version="1.1" id="Layer_1" xmlns="http://www.w3.org/2000/svg" xmlns:xlink="http://www.w3.org/1999/xlink" x="0px" y="0px"
	 viewBox="0 0 227.12 143.47" style="enable-background:new 0 0 227.12 143.47;" xml:space="preserve">
<style type="text/css">
	.st0{fill:none;stroke:#FFFFFF;stroke-width:10;stroke-miterlimit:10;}
	.st1{fill:#FFFFFF;}
	.st2{fill:none;stroke:#FFFFFF;stroke-width:5;stroke-linecap:round;stroke-miterlimit:10;}
</style>
<ellipse class="st0" cx="112.84" cy="74.11" rx="59.15" ry="54.04"/>
<g>
	<path class="st1" d="M135.26,76.4c-1.86,0-3.37-1.51-3.37-3.37V51.17c0-1.86,1.51-3.37,3.37-3.37c1.86,0,3.37,1.51,3.37,3.37v21.87
		C138.62,74.9,137.12,76.4,135.26,76.4z"/>
	<path class="st1" d="M145.08,65.47h-19.64c-1.86,0-3.37-1.51-3.37-3.37c0-1.86,1.51-3.37,3.37-3.37h19.64
		c1.86,0,3.37,1.51,3.37,3.37C148.44,63.96,146.94,65.47,145.08,65.47z"/>
</g>
<g>
	<path class="st1" d="M87.97,76.4c-1.86,0-3.37-1.51-3.37-3.37V51.17c0-1.86,1.51-3.37,3.37-3.37s3.37,1.51,3.37,3.37v21.87
		C91.33,74.9,89.82,76.4,87.97,76.4z"/>
	<path class="st1" d="M97.79,65.47H78.14c-1.86,0-3.37-1.51-3.37-3.37s1.51-3.37,3.37-3.37h19.64c1.86,0,3.37,1.51,3.37,3.37
		S99.64,65.47,97.79,65.47z"/>
</g>
<g>
	<path class="st1" d="M200.68,136.73c-3.01,0.01-5.46-2.41-5.47-5.42l-0.17-35.41c-0.01-3.01,2.41-5.46,5.42-5.47
		c3.01-0.01,5.46,2.41,5.47,5.42l0.17,35.41C206.12,134.27,203.69,136.72,200.68,136.73z"/>
	<path class="st1" d="M216.49,118.95l-31.8,0.15c-3.01,0.01-5.46-2.41-5.47-5.42c-0.01-3.01,2.41-5.46,5.42-5.47l31.8-0.15
		c3.01-0.01,5.46,2.41,5.47,5.42S219.5,118.94,216.49,118.95z"/>
</g>
<g>
	<path class="st1" d="M26.6,55.5c-3.01,0.01-5.45-2.43-5.46-5.44l-0.08-35.41c-0.01-3.01,2.43-5.45,5.44-5.46
		c3.01-0.01,5.45,2.43,5.46,5.44l0.08,35.41C32.04,53.05,29.61,55.49,26.6,55.5z"/>
	<path class="st1" d="M42.46,37.76l-31.8,0.07c-3.01,0.01-5.45-2.43-5.46-5.44c-0.01-3.01,2.43-5.45,5.44-5.46l31.8-0.07
		c3.01-0.01,5.45,2.43,5.46,5.44C47.9,35.31,45.47,37.76,42.46,37.76z"/>
</g>
<path class="st2" d="M87.51,95.45c0,0,14.67,12.83,24.88,12.6c2.94-0.07,6.32-1.26,9.65-2.92c8.23-4.12,16.13-11.12,16.13-11.12
	s-12.38-10.7-16.55-4.65c-4.43,6.42,0.96,12.85,0.96,12.85"/>
</svg>
