<?xml version="1.0" encoding="utf-8"?>
<!-- Generator: Adobe Illustrator 23.0.6, SVG Export Plug-In . SVG Version: 6.00 Build 0)  -->
<svg version="1.1" id="Layer_1" xmlns="http://www.w3.org/2000/svg" xmlns:xlink="http://www.w3.org/1999/xlink" x="0px" y="0px"
	 viewBox="0 0 252 252" style="enable-background:new 0 0 252 252;" xml:space="preserve">
<style type="text/css">
	.st0{fill:#FFC41C;}
	.st1{fill:#FFC41C;stroke:#FFC41C;stroke-miterlimit:10;}
	.st2{opacity:0.61;}
	.st3{fill:#FFFFFF;}
</style>
<polygon class="st0" points="39.99,240.43 28.08,234.17 16.17,240.44 18.44,227.18 8.8,217.79 22.12,215.85 28.07,203.78 
	34.03,215.84 47.35,217.77 37.71,227.17 "/>
<polygon class="st0" points="233.29,238.82 220.85,232.2 208.33,238.69 210.79,224.81 200.75,214.92 214.71,212.96 221.02,200.36 
	227.19,213.03 241.12,215.13 230.98,224.92 "/>
<polygon class="st0" points="140.73,47 128.05,40.42 115.45,47.13 117.79,33.05 107.51,23.14 121.63,21.01 127.88,8.17 
	134.27,20.94 148.41,22.92 138.24,32.94 "/>
<polyline class="st1" points="145.27,120.84 170.02,92.35 188.39,92.11 185.53,111.69 150.93,129.19 "/>
<g class="st2">
	<polygon class="st3" points="185.29,87.24 149.96,120.6 182.43,84.44 	"/>
</g>
<g class="st2">
	<polygon class="st3" points="195.5,102.58 152.44,124.09 193.56,99.08 	"/>
</g>
<polyline class="st1" points="154.32,143.1 191.74,136.04 207.14,146.19 193.18,158.97 154.08,152.42 "/>
<g class="st2">
	<polygon class="st3" points="214.8,141.01 165.8,145.56 214.26,137.05 	"/>
</g>
<g class="st2">
	<polygon class="st3" points="214.26,158.02 165.8,149.51 214.8,154.06 	"/>
</g>
<polyline class="st1" points="123.55,117.06 116.5,76.16 126.64,59.33 139.43,74.58 132.87,117.32 "/>
<g class="st2">
	<polygon class="st3" points="121.47,59.14 126.01,112.65 117.5,59.63 	"/>
</g>
<g class="st2">
	<polygon class="st3" points="138.48,59.63 129.97,112.65 134.51,59.14 	"/>
</g>
<polyline class="st1" points="125.56,177.67 118.5,218.57 128.64,235.4 141.43,220.15 134.88,177.41 "/>
<g class="st2">
	<polygon class="st3" points="119.5,235.1 128.01,182.08 123.47,235.59 	"/>
</g>
<g class="st2">
	<polygon class="st3" points="136.51,235.59 131.97,182.08 140.48,235.1 	"/>
</g>
<polyline class="st1" points="145.27,173.97 169.29,203.08 187.65,203.78 185.29,184.14 151.14,165.77 "/>
<g class="st2">
	<polygon class="st3" points="181.5,211.29 149.95,174.33 184.43,208.57 	"/>
</g>
<g class="st2">
	<polygon class="st3" points="193,196.95 152.52,170.91 195.02,193.5 	"/>
</g>
<polyline class="st1" points="100.68,170.85 71.57,194.87 70.88,213.23 90.51,210.87 108.89,176.72 "/>
<g class="st2">
	<polygon class="st3" points="63.36,207.08 100.32,175.53 66.08,210.01 	"/>
</g>
<g class="st2">
	<polygon class="st3" points="77.7,218.58 103.74,178.1 81.16,220.6 	"/>
</g>
<polyline class="st1" points="100.86,145.55 63.44,138.49 48.04,148.64 62,161.42 101.1,154.87 "/>
<g class="st2">
	<polygon class="st3" points="40.91,139.5 89.38,148.01 40.38,143.46 	"/>
</g>
<g class="st2">
	<polygon class="st3" points="40.38,156.51 89.38,151.96 40.91,160.47 	"/>
</g>
<polyline class="st1" points="104.23,129.21 72.61,108.61 69.86,90.44 89.64,90.59 111.73,122.46 "/>
<g class="st2">
	<polygon class="st3" points="65.46,94.18 103.35,124.6 63.08,97.4 	"/>
</g>
<g class="st2">
	<polygon class="st3" points="79.25,81.97 106.46,121.66 76.05,84.36 	"/>
</g>
<circle class="st0" cx="127.96" cy="147.51" r="44.48"/>
</svg>
