<?xml version="1.0" encoding="utf-8"?>
<!-- Generator: Adobe Illustrator 23.0.6, SVG Export Plug-In . SVG Version: 6.00 Build 0)  -->
<svg version="1.1" id="Layer_1" xmlns="http://www.w3.org/2000/svg" xmlns:xlink="http://www.w3.org/1999/xlink" x="0px" y="0px"
	 viewBox="0 0 240.75 241.57" style="enable-background:new 0 0 240.75 241.57;" xml:space="preserve">
<style type="text/css">
	.st0{fill:#FFC41C;}
	.st1{fill:#FFC41C;stroke:#FFC41C;stroke-miterlimit:10;}
	.st2{fill:#FFFFFF;}
</style>
<polygon class="st0" points="34.98,233.91 23.07,227.65 11.16,233.92 13.43,220.65 3.79,211.26 17.11,209.32 23.06,197.25 
	29.02,209.32 42.34,211.25 32.7,220.65 "/>
<polygon class="st0" points="227.28,232.19 214.83,225.57 202.32,232.06 204.78,218.18 194.74,208.29 208.7,206.34 215.01,193.73 
	221.18,206.4 235.11,208.51 224.97,218.29 "/>
<polygon class="st0" points="134.72,43 122.04,36.42 109.44,43.13 111.78,29.04 101.5,19.13 115.62,17 121.87,4.17 128.26,16.94 
	142.4,18.91 132.23,28.93 "/>
<polyline class="st1" points="139.63,114.21 164.38,85.72 182.75,85.49 179.89,105.06 145.3,122.56 "/>
<g>
	<polygon class="st2" points="179.65,80.61 144.32,113.97 176.79,77.82 	"/>
</g>
<g>
	<polygon class="st2" points="189.86,95.95 146.81,117.46 187.92,92.45 	"/>
</g>
<polyline class="st1" points="148.68,136.47 186.1,129.42 201.5,139.56 187.54,152.35 148.44,145.79 "/>
<g>
	<polygon class="st2" points="209.16,134.38 160.16,138.93 208.63,130.42 	"/>
</g>
<g>
	<polygon class="st2" points="208.63,151.4 160.16,142.89 209.16,147.43 	"/>
</g>
<polyline class="st1" points="117.91,110.43 110.86,69.53 121,52.7 133.79,67.95 127.24,110.69 "/>
<g>
	<polygon class="st2" points="115.83,52.52 120.37,106.02 111.86,53 	"/>
</g>
<g>
	<polygon class="st2" points="132.84,53 124.33,106.02 128.87,52.52 	"/>
</g>
<polyline class="st1" points="119.92,171.04 112.86,211.94 123.01,228.77 135.79,213.52 129.24,170.78 "/>
<g>
	<polygon class="st2" points="113.86,228.47 122.38,175.45 117.83,228.96 	"/>
</g>
<g>
	<polygon class="st2" points="130.88,228.96 126.33,175.45 134.85,228.47 	"/>
</g>
<polyline class="st1" points="139.63,167.35 163.66,196.45 182.01,197.15 179.65,177.51 145.51,159.14 "/>
<g>
	<polygon class="st2" points="175.86,204.66 144.32,167.7 178.79,201.95 	"/>
</g>
<g>
	<polygon class="st2" points="187.36,190.32 146.89,164.28 189.38,186.87 	"/>
</g>
<polyline class="st1" points="95.04,164.23 65.93,188.25 65.24,206.6 84.88,204.24 103.25,170.1 "/>
<g>
	<polygon class="st2" points="57.72,200.45 94.68,168.91 60.44,203.38 	"/>
</g>
<g>
	<polygon class="st2" points="72.07,211.95 98.11,171.48 75.52,213.97 	"/>
</g>
<polyline class="st1" points="95.23,138.92 57.8,131.87 42.4,142.01 56.36,154.8 95.46,148.24 "/>
<g>
	<polygon class="st2" points="35.28,132.87 83.74,141.38 34.75,136.83 	"/>
</g>
<g>
	<polygon class="st2" points="34.75,149.88 83.74,145.34 35.28,153.85 	"/>
</g>
<polyline class="st1" points="98.59,122.59 66.97,101.98 64.22,83.82 84,83.96 106.09,115.83 "/>
<g>
	<polygon class="st2" points="59.82,87.56 97.71,117.97 57.45,90.78 	"/>
</g>
<g>
	<polygon class="st2" points="73.61,75.34 100.83,115.04 70.41,77.74 	"/>
</g>
<circle class="st0" cx="122.32" cy="140.88" r="44.48"/>
</svg>
