<?xml version="1.0" encoding="utf-8"?>
<!-- Generator: Adobe Illustrator 23.0.6, SVG Export Plug-In . SVG Version: 6.00 Build 0)  -->
<svg version="1.1" id="Layer_1" xmlns="http://www.w3.org/2000/svg" xmlns:xlink="http://www.w3.org/1999/xlink" x="0px" y="0px"
	 viewBox="0 0 215.07 218.83" style="enable-background:new 0 0 215.07 218.83;" xml:space="preserve">
<style type="text/css">
	.st0{fill:#FFC41C;}
	.st1{fill:#FFC41C;stroke:#FFC41C;stroke-miterlimit:10;}
	.st2{fill:#FFFFFF;}
</style>
<polygon class="st0" points="31.19,214.98 19.28,208.72 7.37,214.99 9.64,201.72 0,192.33 13.32,190.39 19.27,178.32 25.23,190.39 
	38.55,192.32 28.91,201.72 "/>
<polygon class="st0" points="207.23,215.89 194.79,209.26 182.28,215.75 184.74,201.87 174.7,191.98 188.66,190.03 194.96,177.42 
	201.13,190.1 215.07,192.2 204.92,201.98 "/>
<polygon class="st0" points="120.63,38.83 107.96,32.25 95.35,38.96 97.69,24.88 87.41,14.97 101.53,12.84 107.78,0 114.17,12.77 
	128.31,14.75 118.14,24.77 "/>
<polyline class="st1" points="125.55,101.26 150.29,72.77 168.66,72.54 165.81,92.11 131.21,109.62 "/>
<g>
	<polygon class="st2" points="165.56,67.66 130.23,101.02 162.7,64.87 	"/>
</g>
<g>
	<polygon class="st2" points="175.77,83 132.72,104.51 173.84,79.5 	"/>
</g>
<polyline class="st1" points="134.59,123.52 172.01,116.47 187.41,126.61 173.46,139.4 134.35,132.85 "/>
<g>
	<polygon class="st2" points="195.07,121.44 146.07,125.98 194.54,117.47 	"/>
</g>
<g>
	<polygon class="st2" points="194.54,138.45 146.07,129.94 195.07,134.48 	"/>
</g>
<polyline class="st1" points="103.83,97.49 96.77,56.58 106.91,39.75 119.7,55.01 113.15,97.75 "/>
<g>
	<polygon class="st2" points="101.74,39.57 106.28,93.07 97.77,40.05 	"/>
</g>
<g>
	<polygon class="st2" points="118.75,40.05 110.24,93.07 114.78,39.57 	"/>
</g>
<polyline class="st1" points="105.83,158.09 98.77,199 108.92,215.83 121.71,200.57 115.15,157.83 "/>
<g>
	<polygon class="st2" points="99.78,215.53 108.29,162.51 103.75,216.01 	"/>
</g>
<g>
	<polygon class="st2" points="116.79,216.01 112.25,162.51 120.76,215.53 	"/>
</g>
<polyline class="st1" points="125.55,154.4 149.57,183.5 167.92,184.2 165.56,164.56 131.42,146.19 "/>
<g>
	<polygon class="st2" points="161.77,191.72 130.23,154.75 164.7,189 	"/>
</g>
<g>
	<polygon class="st2" points="173.27,177.37 132.8,151.33 175.29,173.92 	"/>
</g>
<polyline class="st1" points="80.95,151.28 51.84,175.3 51.15,193.65 70.79,191.29 89.16,157.15 "/>
<g>
	<polygon class="st2" points="43.63,187.5 80.6,155.96 46.35,190.43 	"/>
</g>
<g>
	<polygon class="st2" points="57.98,199 84.02,158.53 61.43,201.03 	"/>
</g>
<polyline class="st1" points="81.14,125.97 43.71,118.92 28.31,129.06 42.27,141.85 81.37,135.3 "/>
<g>
	<polygon class="st2" points="21.19,119.92 69.66,128.43 20.66,123.89 	"/>
</g>
<g>
	<polygon class="st2" points="20.66,136.93 69.66,132.39 21.19,140.9 	"/>
</g>
<polyline class="st1" points="84.5,109.64 52.89,89.03 50.14,70.87 69.92,71.01 92,102.88 "/>
<g>
	<polygon class="st2" points="45.73,74.61 83.63,105.03 43.36,77.83 	"/>
</g>
<g>
	<polygon class="st2" points="59.53,62.39 86.74,102.09 56.32,64.79 	"/>
</g>
<circle class="st0" cx="108.24" cy="127.93" r="44.48"/>
</svg>
