<?xml version="1.0" encoding="utf-8"?>
<!-- Generator: Adobe Illustrator 23.0.6, SVG Export Plug-In . SVG Version: 6.00 Build 0)  -->
<svg version="1.1" id="Layer_1" xmlns="http://www.w3.org/2000/svg" xmlns:xlink="http://www.w3.org/1999/xlink" x="0px" y="0px"
	 viewBox="0 0 249 272" style="enable-background:new 0 0 249 272;" xml:space="preserve">
<style type="text/css">
	.st0{fill:#FFC31C;}
</style>
<polygon class="st0" points="33.42,271.93 20.57,265.4 7.9,272.28 10.14,258.04 -0.32,248.12 13.92,245.85 20.12,232.84 
	26.68,245.68 40.97,247.55 30.79,257.76 "/>
<polygon class="st0" points="240.3,271 226.95,263.96 213.58,270.98 216.14,256.1 205.34,245.55 220.28,243.39 226.98,229.86 
	233.65,243.4 248.59,245.59 237.76,256.12 "/>
<polygon class="st0" points="137.91,42.03 124.46,34.74 110.84,41.69 113.61,26.65 102.8,15.83 117.96,13.82 124.9,0.2 131.5,14 
	146.6,16.39 135.52,26.92 "/>
</svg>
