<?xml version="1.0" encoding="utf-8"?>
<!-- Generator: Adobe Illustrator 23.0.6, SVG Export Plug-In . SVG Version: 6.00 Build 0)  -->
<svg version="1.1" id="Layer_1" xmlns="http://www.w3.org/2000/svg" xmlns:xlink="http://www.w3.org/1999/xlink" x="0px" y="0px"
	 viewBox="0 0 177 197" style="enable-background:new 0 0 177 197;" xml:space="preserve">
<style type="text/css">
	.st0{fill:#FFC31C;stroke:#FFC31C;stroke-miterlimit:10;}
	.st1{fill:#FFFFFF;}
	.st2{fill:#FFC31C;}
</style>
<polyline class="st0" points="107.42,69.26 134.43,38.17 154.47,37.91 151.35,59.27 113.6,78.38 "/>
<g>
	<line class="st1" x1="149.53" y1="31.07" x2="112.53" y2="69"/>
	<polygon class="st1" points="150.96,32.46 112.53,69 148.09,29.67 	"/>
</g>
<g>
	<line class="st1" x1="161.17" y1="47.42" x2="115.24" y2="72.81"/>
	<polygon class="st1" points="162.14,49.17 115.24,72.81 160.21,45.67 	"/>
</g>
<polyline class="st0" points="117.29,93.56 158.13,85.86 174.93,96.92 159.7,110.88 117.03,103.73 "/>
<g>
	<line class="st1" x1="176" y1="89.11" x2="129.82" y2="96.24"/>
	<polygon class="st1" points="176.3,91.09 129.82,96.24 175.7,87.14 	"/>
</g>
<g>
	<line class="st1" x1="174" y1="107" x2="129.82" y2="100.56"/>
	<polygon class="st1" points="173.71,108.98 129.82,100.56 174.29,105.02 	"/>
</g>
<polyline class="st0" points="83.71,65.14 76.01,20.5 87.08,2.14 101.04,18.78 93.89,65.42 "/>
<g>
	<line class="st1" x1="79.27" y1="2.2" x2="86.4" y2="60.33"/>
	<polygon class="st1" points="81.26,1.95 86.4,60.33 77.29,2.44 	"/>
</g>
<g>
	<line class="st1" x1="97.84" y1="2.2" x2="90.71" y2="60.33"/>
	<polygon class="st1" points="99.82,2.44 90.71,60.33 95.85,1.95 	"/>
</g>
<polyline class="st0" points="85.9,131.28 78.2,175.92 89.27,194.29 103.23,177.64 96.07,131 "/>
<g>
	<line class="st1" x1="81.46" y1="194.23" x2="88.58" y2="136.1"/>
	<polygon class="st1" points="79.48,193.98 88.58,136.1 83.45,194.47 	"/>
</g>
<g>
	<line class="st1" x1="100.03" y1="194.23" x2="92.9" y2="136.1"/>
	<polygon class="st1" points="98.04,194.47 92.9,136.1 102.01,193.98 	"/>
</g>
<polyline class="st0" points="107.42,127.25 133.63,159.02 153.67,159.77 151.09,138.34 113.82,118.29 "/>
<g>
	<line class="st1" x1="148.55" y1="166.49" x2="112.53" y2="127.64"/>
	<polygon class="st1" points="147.08,167.85 112.53,127.64 150.02,165.13 	"/>
</g>
<g>
	<line class="st1" x1="160.61" y1="150.44" x2="115.33" y2="123.9"/>
	<polygon class="st1" points="159.59,152.16 115.33,123.9 161.62,148.71 	"/>
</g>
<polyline class="st0" points="58.75,123.84 26.98,150.06 26.23,170.09 47.66,167.51 67.71,130.25 "/>
<g>
	<line class="st1" x1="19.51" y1="164.98" x2="58.36" y2="128.95"/>
	<polygon class="st1" points="18.15,163.51 58.36,128.95 20.87,166.44 	"/>
</g>
<g>
	<line class="st1" x1="35.56" y1="177.03" x2="62.1" y2="131.76"/>
	<polygon class="st1" points="33.84,176.02 62.1,131.76 37.29,178.04 	"/>
</g>
<polyline class="st0" points="58.95,96.23 18.11,88.53 1.31,99.6 16.54,113.56 59.21,106.4 "/>
<g>
	<line class="st1" x1="0" y1="91.79" x2="46.42" y2="98.91"/>
	<polygon class="st1" points="0.3,89.81 46.42,98.91 -0.3,93.77 	"/>
</g>
<g>
	<line class="st1" x1="0" y1="110.35" x2="46.42" y2="103.23"/>
	<polygon class="st1" points="-0.3,108.38 46.42,103.23 0.3,112.33 	"/>
</g>
<polyline class="st0" points="62.63,78.4 28.12,55.91 25.12,36.09 46.71,36.25 70.81,71.03 "/>
<g>
	<line class="st1" x1="19.02" y1="41.93" x2="61.67" y2="73.37"/>
	<polygon class="st1" points="20.2,40.32 61.67,73.37 17.83,43.54 	"/>
</g>
<g>
	<line class="st1" x1="33.62" y1="28.15" x2="65.06" y2="70.16"/>
	<polygon class="st1" points="35.22,26.95 65.06,70.16 32.02,29.35 	"/>
</g>
<circle class="st2" cx="88.53" cy="98.37" r="48.54"/>
</svg>
