<?xml version="1.0" encoding="utf-8"?>
<!-- Generator: Adobe Illustrator 24.0.1, SVG Export Plug-In . SVG Version: 6.00 Build 0)  -->
<svg version="1.1" id="Layer_1" xmlns="http://www.w3.org/2000/svg" xmlns:xlink="http://www.w3.org/1999/xlink" x="0px" y="0px"
	 viewBox="0 0 360 360" style="enable-background:new 0 0 360 360;" xml:space="preserve">
<style type="text/css">
	.st0{fill:#FFDA89;stroke:#D88850;stroke-width:6;stroke-miterlimit:10;}
	.st1{fill:#F5F5DD;}
</style>
<circle class="st0" cx="114.66" cy="122.85" r="19.59"/>
<circle class="st0" cx="114.66" cy="239.45" r="19.59"/>
<path class="st1" d="M227.56,100.96H154.1c-4,0-7.25,3.24-7.25,7.25v50.29c1.49-0.36,3.05-0.58,4.65-0.58
	c10.82,0,19.59,8.77,19.59,19.59c0,10.82-8.77,19.59-19.59,19.59c-1.61,0-3.16-0.21-4.65-0.58v55.29c0,4,3.24,7.25,7.25,7.25h73.47
	c4,0,7.25-3.24,7.25-7.25V108.2C234.81,104.2,231.57,100.96,227.56,100.96z"/>
</svg>
