<?xml version="1.0" encoding="utf-8"?>
<!-- Generator: Adobe Illustrator 24.0.1, SVG Export Plug-In . SVG Version: 6.00 Build 0)  -->
<svg version="1.1" id="Layer_1" xmlns="http://www.w3.org/2000/svg" xmlns:xlink="http://www.w3.org/1999/xlink" x="0px" y="0px"
	 viewBox="0 0 360 360" style="enable-background:new 0 0 360 360;" xml:space="preserve">
<style type="text/css">
	.st0{fill:#F5F5DD;}
	.st1{fill:#FFDA89;stroke:#D88850;stroke-width:6;stroke-miterlimit:10;}
</style>
<path class="st0" d="M173.69,100.96h73.47c4,0,7.25,3.24,7.25,7.25V251.8c0,4-3.24,7.25-7.25,7.25h-73.47c-4,0-7.25-3.24-7.25-7.25
	V108.2C166.44,104.2,169.69,100.96,173.69,100.96z"/>
<circle class="st1" cx="108.39" cy="122.85" r="19.59"/>
<path class="st0" d="M94.59,189.86v-28.84c0-4,3.24-7.25,7.25-7.25h90.51c4,0,7.25,3.24,7.25,7.25v28.84c0,4-3.24,7.25-7.25,7.25
	h-90.51C97.84,197.11,94.59,193.87,94.59,189.86z"/>
</svg>
