<?xml version="1.0" encoding="utf-8"?>
<!-- Generator: Adobe Illustrator 24.0.1, SVG Export Plug-In . SVG Version: 6.00 Build 0)  -->
<svg version="1.1" id="Layer_1" xmlns="http://www.w3.org/2000/svg" xmlns:xlink="http://www.w3.org/1999/xlink" x="0px" y="0px"
	 viewBox="0 0 360 360" style="enable-background:new 0 0 360 360;" xml:space="preserve">
<style type="text/css">
	.st0{fill:#FFDA89;stroke:#D88850;stroke-width:6;stroke-miterlimit:10;}
	.st1{fill:#F5F5DD;}
</style>
<circle class="st0" cx="250.51" cy="120.55" r="19.59"/>
<path class="st1" d="M96.4,251.8v-28.84c0-4,3.24-7.25,7.25-7.25h90.51c4,0,7.25,3.24,7.25,7.25v28.84c0,4-3.24,7.25-7.25,7.25
	h-90.51C99.65,259.04,96.4,255.8,96.4,251.8z"/>
<path class="st1" d="M212.89,195.44c-10.82,0-19.59-8.77-19.59-19.59s8.77-19.59,19.59-19.59c1.56,0,3.07,0.2,4.53,0.55V108.2
	c0-4-3.24-7.25-7.25-7.25h-73.47c-4,0-7.25,3.24-7.25,7.25V251.8c0,4,3.24,7.25,7.25,7.25h73.47c4,0,7.25-3.24,7.25-7.25v-56.9
	C215.97,195.24,214.46,195.44,212.89,195.44z"/>
</svg>
