<?xml version="1.0" encoding="utf-8"?>
<!-- Generator: Adobe Illustrator 24.0.1, SVG Export Plug-In . SVG Version: 6.00 Build 0)  -->
<svg version="1.1" id="Layer_1" xmlns="http://www.w3.org/2000/svg" xmlns:xlink="http://www.w3.org/1999/xlink" x="0px" y="0px"
	 viewBox="0 0 360 360" style="enable-background:new 0 0 360 360;" xml:space="preserve">
<style type="text/css">
	.st0{fill:#F5F5DD;}
</style>
<path class="st0" d="M153.96,100.96h73.47c4,0,7.25,3.24,7.25,7.25V251.8c0,4-3.24,7.25-7.25,7.25h-73.47c-4,0-7.25-3.24-7.25-7.25
	V108.2C146.71,104.2,149.95,100.96,153.96,100.96z"/>
<path class="st0" d="M90.54,100.96H164c4,0,7.25,3.24,7.25,7.25v26.06c0,4-3.24,7.25-7.25,7.25H90.54c-4,0-7.25-3.24-7.25-7.25
	V108.2C83.29,104.2,86.53,100.96,90.54,100.96z"/>
</svg>
