<?xml version="1.0" encoding="utf-8"?>
<!-- Generator: Adobe Illustrator 24.0.1, SVG Export Plug-In . SVG Version: 6.00 Build 0)  -->
<svg version="1.1" id="Layer_1" xmlns="http://www.w3.org/2000/svg" xmlns:xlink="http://www.w3.org/1999/xlink" x="0px" y="0px"
	 viewBox="0 0 360 360" style="enable-background:new 0 0 360 360;" xml:space="preserve">
<style type="text/css">
	.st0{fill:#F5F5DC;}
</style>
<path class="st0" d="M253.12,72h-49.64c0.31,1.65,0.46,3.3,0.46,5c0,15.24-11.83,27.62-26.39,27.62
	c-14.56,0-26.39-12.38-26.39-27.62c0-1.7,0.15-3.4,0.46-5h-44.86C87.59,72,72,88.31,72,108.4V251.6c0,20.1,15.59,36.4,34.77,36.4
	h5.5c-2.73-4.32-4.27-9.51-4.27-15.05c0-15.24,11.83-27.62,26.39-27.62c14.56,0,26.39,12.38,26.39,27.62
	c0,5.58-1.59,10.73-4.27,15.05h42.18c-2.73-4.32-4.27-9.51-4.27-15.05c0-15.24,11.83-27.62,26.39-27.62
	c14.56,0,26.39,12.38,26.39,27.62c0,5.58-1.59,10.73-4.27,15.05h10.29c19.19,0,34.77-16.31,34.77-36.4V108.4
	C287.9,88.31,272.36,72,253.12,72z"/>
</svg>
