<?xml version="1.0" encoding="utf-8"?>
<!-- Generator: Adobe Illustrator 24.0.1, SVG Export Plug-In . SVG Version: 6.00 Build 0)  -->
<svg version="1.1" id="Layer_1" xmlns="http://www.w3.org/2000/svg" xmlns:xlink="http://www.w3.org/1999/xlink" x="288px" y="288px"
	 viewBox="0 0 288 288" style="enable-background:new 0 0 288 288;" xml:space="preserve">
<style type="text/css">
	.st0{fill:#FFDA88;stroke:#D88850;stroke-width:6;stroke-miterlimit:10;}
	.st1{fill:#F5F5DC;}
</style>
<path class="st0" d="M40.9,129.1H26c-3,0-5.5-2.5-5.5-5.5V90.8c0-3,2.5-5.5,5.5-5.5h14.9c3,0,5.5,2.5,5.5,5.5v32.8
	C46.4,126.6,43.9,129.1,40.9,129.1z"/>
<path class="st1" d="M85.4,84.7h-9.7c0.1,0.3,0.1,0.7,0.1,1c0,3.1-2.3,5.7-5.1,5.7c-2.8,0-5.1-2.6-5.1-5.7c0-0.3,0-0.7,0.1-1h-8.7
	c-3.7,0-6.8,3.4-6.8,7.5v29.5c0,4.1,3,7.5,6.8,7.5H58c-0.5-0.9-0.8-2-0.8-3.1c0-3.1,2.3-5.7,5.1-5.7c2.8,0,5.1,2.6,5.1,5.7
	c0,1.2-0.3,2.2-0.8,3.1h8.2c-0.5-0.9-0.8-2-0.8-3.1c0-3.1,2.3-5.7,5.1-5.7c2.8,0,5.1,2.6,5.1,5.7c0,1.2-0.3,2.2-0.8,3.1h2
	c3.7,0,6.8-3.4,6.8-7.5V92.2C92.1,88.1,89.1,84.7,85.4,84.7z"/>
<path class="st1" d="M107.3,87.2h27.6c4,0,7.2,3.2,7.2,7.2v30c0,4-3.2,7.2-7.2,7.2h-27.6c-4,0-7.2-3.2-7.2-7.2v-30
	C100,90.5,103.3,87.2,107.3,87.2z"/>
<circle class="st0" cx="121.3" cy="87.2" r="5.7"/>
<path class="st0" d="M219.8,130.4h-14.9c-3,0-5.5-2.5-5.5-5.5V66.1c0-3,2.5-5.5,5.5-5.5h14.9c3,0,5.5,2.5,5.5,5.5v58.7
	C225.3,127.9,222.8,130.4,219.8,130.4z"/>
<path class="st1" d="M267.3,114.7c-2.7,0-4.9-2.6-4.9-5.8c0-3.1,2.3-5.7,5-5.6c0.6,0,1.2,0.2,1.8,0.4l0.1-12c0-4.1-2.8-7.5-6.4-7.6
	l-27.4-0.3c-3.6,0-6.6,3.3-6.6,7.4l-0.4,31.6c-0.1,4.1,2.8,7.5,6.4,7.6l27.4,0.3c3.6,0,6.6-3.3,6.6-7.4l0.1-8.9
	C268.5,114.5,267.9,114.7,267.3,114.7z"/>
<path class="st0" d="M186.2,226.1h-14.9c-3,0-5.5-2.5-5.5-5.5v-32.8c0-3,2.5-5.5,5.5-5.5h14.9c3,0,5.5,2.5,5.5,5.5v32.8
	C191.7,223.6,189.3,226.1,186.2,226.1z"/>
<path class="st0" d="M223.7,157.3h-14.9c-3,0-5.5,2.5-5.5,5.5v58.7c0,3,2.5,5.5,5.5,5.5h14.9c3,0,5.5-2.5,5.5-5.5v-58.7
	C229.2,159.7,226.7,157.3,223.7,157.3z"/>
<path class="st1" d="M156.9,60h25.4c4,0,7.2,3.2,7.2,7.2v57.1c0,4-3.2,7.2-7.2,7.2h-25.4c-4,0-7.2-3.2-7.2-7.2V67.2
	C149.7,63.2,152.9,60,156.9,60z"/>
<path class="st1" d="M28.4,156.9h25.4c4,0,7.2,3.2,7.2,7.2v57.1c0,4-3.2,7.2-7.2,7.2H28.4c-4,0-7.2-3.2-7.2-7.2v-57.1
	C21.1,160.1,24.3,156.9,28.4,156.9z"/>
<path class="st1" d="M78.4,183H106c4,0,7.2,3.2,7.2,7.2v30c0,4-3.2,7.2-7.2,7.2H78.4c-4,0-7.2-3.2-7.2-7.2v-30
	C71.2,186.2,74.4,183,78.4,183z"/>
<circle class="st0" cx="92.5" cy="205.4" r="5.7"/>
<path class="st1" d="M128.1,181.9h27.6c4,0,7.2,3.2,7.2,7.2v30c0,4-3.2,7.2-7.2,7.2h-27.6c-4,0-7.2-3.2-7.2-7.2v-30
	C120.9,185.1,124.1,181.9,128.1,181.9z"/>
<circle class="st0" cx="142.2" cy="204.3" r="5.7"/>
<path class="st1" d="M270.9,186.5c-2.7,0-4.9-2.6-4.9-5.8c0-3.1,2.3-5.7,5-5.6c0.6,0,1.2,0.2,1.8,0.4l0.1-12c0-4.1-2.8-7.5-6.4-7.6
	l-27.4-0.3c-3.6,0-6.6,3.3-6.6,7.4l-0.4,31.6c-0.1,4.1,2.8,7.5,6.4,7.6l27.4,0.3c3.6,0,6.6-3.3,6.6-7.4l0.1-8.9
	C272.2,186.4,271.6,186.5,270.9,186.5z"/>
</svg>
