<?xml version="1.0" encoding="utf-8"?>
<!-- Generator: Adobe Illustrator 24.0.1, SVG Export Plug-In . SVG Version: 6.00 Build 0)  -->
<svg version="1.1" id="Layer_1" xmlns="http://www.w3.org/2000/svg" xmlns:xlink="http://www.w3.org/1999/xlink" x="0px" y="0px"
	 viewBox="0 0 288 288" style="enable-background:new 0 0 288 288;" xml:space="preserve">
<style type="text/css">
	.st0{fill:#FFDA88;stroke:#D88850;stroke-width:4;stroke-miterlimit:10;}
	.st1{fill:#F5F5DC;}
</style>
<path class="st0" d="M41.86,129.05H27c-3.04,0-5.5-2.46-5.5-5.5V90.75c0-3.04,2.46-5.5,5.5-5.5h14.86c3.04,0,5.5,2.46,5.5,5.5v32.79
	C47.36,126.59,44.9,129.05,41.86,129.05z"/>
<path class="st1" d="M85.37,84.73h-9.65c0.06,0.34,0.09,0.68,0.09,1.03c0,3.14-2.3,5.69-5.13,5.69c-2.83,0-5.13-2.55-5.13-5.69
	c0-0.35,0.03-0.7,0.09-1.03h-8.72c-3.73,0-6.76,3.36-6.76,7.5v29.5c0,4.14,3.03,7.5,6.76,7.5h1.07c-0.53-0.89-0.83-1.96-0.83-3.1
	c0-3.14,2.3-5.69,5.13-5.69c2.83,0,5.13,2.55,5.13,5.69c0,1.15-0.31,2.21-0.83,3.1h8.2c-0.53-0.89-0.83-1.96-0.83-3.1
	c0-3.14,2.3-5.69,5.13-5.69c2.83,0,5.13,2.55,5.13,5.69c0,1.15-0.31,2.21-0.83,3.1h2c3.73,0,6.76-3.36,6.76-7.5v-29.5
	C92.13,88.09,89.11,84.73,85.37,84.73z"/>
<path class="st1" d="M107.26,87.23h27.56c4,0,7.25,3.24,7.25,7.25v30.01c0,4-3.24,7.25-7.25,7.25h-27.56c-4,0-7.25-3.24-7.25-7.25
	V94.47C100.02,90.47,103.26,87.23,107.26,87.23z"/>
<circle class="st0" cx="121.32" cy="87.23" r="5.69"/>
<path class="st0" d="M219.78,130.35h-14.86c-3.04,0-5.5-2.46-5.5-5.5V66.13c0-3.04,2.46-5.5,5.5-5.5h14.86c3.04,0,5.5,2.46,5.5,5.5
	v58.72C225.29,127.89,222.82,130.35,219.78,130.35z"/>
<path class="st1" d="M266.27,114.65c-2.73-0.03-4.92-2.6-4.89-5.75c0.03-3.14,2.28-5.67,5.01-5.64c0.64,0.01,1.24,0.16,1.8,0.41
	l0.13-12.04c0.05-4.14-2.84-7.53-6.44-7.57l-27.45-0.31c-3.6-0.04-6.56,3.28-6.6,7.42l-0.35,31.57c-0.05,4.14,2.84,7.53,6.44,7.57
	l27.45,0.31c3.6,0.04,6.56-3.28,6.6-7.43l0.1-8.94C267.52,114.52,266.91,114.65,266.27,114.65z"/>
<path class="st0" d="M186.23,226.08h-14.86c-3.04,0-5.5-2.46-5.5-5.5v-32.79c0-3.04,2.46-5.5,5.5-5.5h14.86c3.04,0,5.5,2.46,5.5,5.5
	v32.79C191.73,223.61,189.27,226.08,186.23,226.08z"/>
<path class="st0" d="M223.69,157.27h-14.86c-3.04,0-5.5,2.46-5.5,5.5v58.72c0,3.04,2.46,5.5,5.5,5.5h14.86c3.04,0,5.5-2.46,5.5-5.5
	v-58.72C229.19,159.74,226.73,157.27,223.69,157.27z"/>
<path class="st1" d="M156.9,60h25.36c4,0,7.25,3.24,7.25,7.25v57.13c0,4-3.24,7.25-7.25,7.25H156.9c-4,0-7.25-3.24-7.25-7.25V67.25
	C149.66,63.24,152.9,60,156.9,60z"/>
<path class="st1" d="M28.35,156.88H53.7c4,0,7.25,3.24,7.25,7.25v57.13c0,4-3.24,7.25-7.25,7.25H28.35c-4,0-7.25-3.24-7.25-7.25
	v-57.13C21.1,160.12,24.34,156.88,28.35,156.88z"/>
<path class="st1" d="M78.43,182.96h27.56c4,0,7.25,3.24,7.25,7.25v30.01c0,4-3.24,7.25-7.25,7.25H78.43c-4,0-7.25-3.24-7.25-7.25
	V190.2C71.18,186.2,74.43,182.96,78.43,182.96z"/>
<circle class="st0" cx="92.49" cy="205.43" r="5.69"/>
<path class="st1" d="M128.12,181.86h27.56c4,0,7.25,3.24,7.25,7.25v30.01c0,4-3.24,7.25-7.25,7.25h-27.56c-4,0-7.25-3.24-7.25-7.25
	V189.1C120.87,185.1,124.12,181.86,128.12,181.86z"/>
<circle class="st0" cx="142.18" cy="204.33" r="5.69"/>
<path class="st1" d="M269.94,186.53c-2.73-0.03-4.92-2.6-4.89-5.75c0.03-3.14,2.28-5.67,5.01-5.64c0.64,0.01,1.24,0.16,1.8,0.41
	l0.13-12.04c0.05-4.14-2.84-7.53-6.44-7.57l-27.45-0.31c-3.6-0.04-6.56,3.28-6.6,7.42l-0.35,31.57c-0.05,4.14,2.84,7.53,6.44,7.57
	l27.45,0.31c3.6,0.04,6.56-3.28,6.6-7.43l0.1-8.94C271.19,186.4,270.58,186.54,269.94,186.53z"/>
</svg>
