<?xml version="1.0" encoding="utf-8"?>
<!-- Generator: Adobe Illustrator 24.0.1, SVG Export Plug-In . SVG Version: 6.00 Build 0)  -->
<svg version="1.1" id="Layer_1" xmlns="http://www.w3.org/2000/svg" xmlns:xlink="http://www.w3.org/1999/xlink" x="0px" y="0px"
	 viewBox="0 0 360 360" style="enable-background:new 0 0 360 360;" xml:space="preserve">
<style type="text/css">
	.st0{fill:#F5F5DC;}
	.st1{fill:#D88850;}
	.st2{fill:#F4D34D;}
</style>
<g>
	<path class="st0" d="M289.99,39.1l-68.02,0c-5.45,0-9.95,4.29-10.15,9.73c-0.03,0.9-0.1,1.82-0.22,2.74
		c-1.79,14.7-13.78,26.41-28.52,27.8c-18.97,1.78-34.92-13.09-34.92-31.69c0-0.07,0-0.14,0-0.21c0.03-4.58-3.54-8.36-8.12-8.36
		c-14.81,0-44.69,0-70.04,0c-23.88,0-43.24,19.36-43.24,43.25v200.21c0,23.88,19.36,43.25,43.25,43.25h219.98
		c23.88,0,43.25-19.36,43.25-43.25V82.35C333.24,58.46,313.88,39.1,289.99,39.1z"/>
	<path class="st1" d="M289.99,40.6l-36.18,0.25c-6.03,0-12.06,0.18-18.09,0.29l-9.04,0.18l-4.52,0.09c-1.26,0.01-2.35,0.28-3.4,0.79
		c-2.09,0.99-3.63,2.96-4.12,5.13c-0.07,0.27-0.08,0.55-0.13,0.83l-0.04,0.87l-0.12,2.45c-0.04,0.82-0.2,1.63-0.29,2.44
		c-0.09,0.82-0.28,1.62-0.46,2.42c-1.41,6.45-4.82,12.45-9.56,17.15c-2.36,2.37-5.08,4.4-8.06,5.99c-2.97,1.6-6.16,2.86-9.5,3.63
		l-2.53,0.46c-0.85,0.16-1.7,0.17-2.55,0.26c-1.7,0.2-3.42,0.12-5.15,0.06c-3.43-0.26-6.9-0.88-10.16-2.13
		c-1.67-0.53-3.22-1.36-4.81-2.11c-0.78-0.41-1.51-0.9-2.26-1.35l-1.12-0.7c-0.37-0.25-0.71-0.52-1.06-0.79l-2.11-1.61l-1.96-1.8
		c-0.67-0.58-1.26-1.25-1.85-1.92c-0.58-0.68-1.21-1.32-1.74-2.04c-1.05-1.45-2.14-2.88-2.98-4.48c-0.96-1.54-1.64-3.21-2.38-4.87
		c-1.26-3.39-2.25-6.96-2.51-10.62l-0.13-1.37c-0.02-0.23-0.05-0.46-0.05-0.69c-0.02-0.05-0.03-0.07-0.04-0.11
		c-0.04-0.14-0.11-0.25-0.19-0.34c-0.14-0.19-0.34-0.28-0.49-0.3c-0.17,0-0.25,0.07-0.32,0.17c-0.03,0-0.02,0.06-0.09,0.06
		l-1.13,0.07l-2.26,0.15l-18.09,1.16c-12.06,0.77-24.12,1.7-36.18,2.55l-9.04,0.65l-2.26,0.16c-0.37,0.03-0.78,0.05-1.11,0.09
		l-0.8,0.13c-1.06,0.21-2.13,0.23-3.15,0.58c-4.12,0.98-7.9,2.82-11.1,5.3c-3.21,2.48-5.83,5.59-7.67,9
		c-1.87,3.41-2.85,7.14-3.08,10.81l-0.04,1.38l-0.04,0.68c0,0.23,0.04,0.46,0.05,0.69l0.09,1.37l0.03,0.68l0.08,1.13l0.65,9.04
		c0.44,6.03,0.87,12.06,1.24,18.09c0.75,12.06,1.61,24.12,2.24,36.18c0.66,12.06,1.4,24.12,1.89,36.18
		c0.54,12.06,1.15,24.12,1.49,36.18c0.37,12.06,0.89,24.12,1.07,36.18l0.37,18.09l0.18,9.04c0,0.12,0.01,0.14,0.01,0.17l0.02,0.11
		l0.03,0.22c0.02,0.15,0.03,0.29,0.04,0.44c0.02,0.29,0.03,0.58,0.03,0.88c0.15,0.56,0.22,1.13,0.3,1.69
		c0.52,2.21,1.5,4.29,2.88,6.12c1.37,1.84,3.16,3.35,5.1,4.5c1.93,1.18,4.06,1.95,6.33,2.24c0.58,0.04,1.16,0.04,1.74,0.13
		l4.41,0.04l9.04,0.06c12.06,0.13,24.12,0.46,36.18,0.68c24.12,0.6,48.24,1.46,72.35,2.62c24.12,1.14,48.24,2.57,72.35,4.15
		c6.03,0.36,12.06,0.82,18.09,1.25l4.52,0.32l2.26,0.16l0.57,0.04l0.28,0.02l0.17,0.01l0.68,0.03c0.91,0.03,1.84,0.2,2.74,0.09
		c0.91-0.04,1.85-0.01,2.75-0.2c7.31-0.87,14.68-5.18,19.27-11.95c2.28-3.37,3.88-7.27,4.61-11.47l0.24-1.59
		c0.04-0.29,0.1-0.48,0.12-0.86l0.08-1.13l0.32-4.52l0.64-9.04c0.83-12.06,1.77-24.12,2.52-36.18c0.74-12.06,1.61-24.12,2.23-36.18
		c0.65-12.06,1.4-24.12,1.89-36.18c0.52-12.06,1.16-24.12,1.5-36.18l0.6-18.09l0.29-9.04l0.18-9.04l0.09-4.52
		c-0.05-1.43-0.07-2.86-0.14-4.29c-0.2-1.41-0.34-2.84-0.59-4.25c-0.36-1.39-0.6-2.81-1.04-4.17c-1.68-5.49-4.51-10.68-8.39-14.98
		c-3.84-4.32-8.6-7.84-13.88-10.25C301.62,41.92,295.82,40.64,289.99,40.6z M289.99,37.6c6.24-0.02,12.49,1.29,18.19,3.84
		c5.71,2.53,10.87,6.28,15.07,10.91c4.2,4.62,7.44,10.13,9.4,16.07c0.51,1.48,0.82,3.02,1.24,4.53c0.31,1.53,0.5,3.09,0.76,4.63
		c0.12,1.56,0.18,3.12,0.27,4.69l0.02,4.53l0.19,72.35l0.19,72.35l0.09,36.18l0.02,9.04c0,3.02,0.08,5.97-0.14,9.2
		c-0.43,6.32-2.21,12.55-5.19,18.15c-5.96,11.22-16.82,19.69-29.19,22.72c-1.53,0.46-3.11,0.66-4.68,0.9
		c-1.56,0.31-3.16,0.31-4.74,0.41c-1.62,0.12-3.08,0.07-4.6,0.08l-4.52,0.01l-18.09,0.05l-72.35,0.19l-72.35,0.19l-36.18,0.09
		l-9.04,0.02l-4.53,0c-1.61-0.09-3.22-0.12-4.82-0.26c-6.41-0.68-12.67-2.74-18.23-5.98c-5.57-3.25-10.42-7.69-14.18-12.91
		c-3.77-5.22-6.43-11.24-7.74-17.54c-0.28-1.58-0.49-3.18-0.73-4.77l-0.23-4.81l0.02-9.04l0.05-18.09l0.19-72.35l0.19-72.35
		l0.05-18.09l0.02-9.04l0-1.13l0.06-1.19l0.13-2.38c0.03-0.4,0.03-0.79,0.07-1.19l0.18-1.18l0.37-2.36
		c1.16-6.24,3.61-12.27,7.26-17.47c3.62-5.22,8.33-9.66,13.74-12.96c5.41-3.31,11.51-5.48,17.8-6.29c1.56-0.31,3.15-0.26,4.73-0.37
		l1.19-0.05l1.13,0l2.26,0.01l9.04,0.02l36.18,0.09l18.09,0.05l2.26,0.01l1.13,0c0.45,0.03,0.93,0.02,1.4,0.1
		c1.87,0.24,3.66,1.06,5.09,2.27c1.42,1.22,2.51,2.82,3.09,4.59c0.3,0.88,0.47,1.8,0.52,2.73l0.03,0.69
		c-0.01,0.18,0.01,0.35,0.02,0.53l0.06,1.06c0.04,2.84,0.7,5.62,1.53,8.31c0.52,1.32,0.97,2.66,1.67,3.9
		c0.59,1.29,1.41,2.45,2.17,3.65c0.39,0.59,0.87,1.12,1.3,1.68c0.44,0.56,0.87,1.12,1.39,1.6l1.49,1.52l1.63,1.36
		c0.28,0.22,0.54,0.46,0.82,0.67l0.88,0.59c0.59,0.38,1.16,0.81,1.78,1.17c1.26,0.65,2.47,1.39,3.82,1.87
		c2.6,1.14,5.41,1.74,8.22,2.09c1.42,0.09,2.83,0.25,4.26,0.13c0.71-0.04,1.43-0.01,2.13-0.12l2.11-0.29
		c5.56-1.06,10.89-3.63,15.03-7.56c4.17-3.87,7.28-8.92,8.68-14.45c0.18-0.69,0.38-1.37,0.47-2.08c0.1-0.7,0.27-1.4,0.33-2.11
		l0.18-2.13l0.12-1.29c0.09-0.43,0.15-0.87,0.26-1.3c0.88-3.43,3.38-6.37,6.6-7.79c1.59-0.73,3.4-1.08,5.09-1.05l4.52,0.01
		l9.04,0.02l18.09,0.05L289.99,37.6z"/>
</g>
<path class="st2" d="M233.42,200.53l-56.38,25.4c-6.5,2.93-14.14,0.03-17.07-6.47l-25.4-56.38c-2.93-6.5-0.03-14.14,6.47-17.07
	l56.38-25.4c6.5-2.93,14.14-0.03,17.07,6.47l25.4,56.38C242.81,189.96,239.92,197.6,233.42,200.53z"/>
<path class="st2" d="M186.54,245.92c3.76,12.59-3.97,23.79-8.87,23.79s-12.89-11.28-8.87-23.79c4.82-15.01,3.97-23.79,8.87-23.79
	S182.86,233.61,186.54,245.92z"/>
<path class="st2" d="M191.12,299.38c2.7,9.02-2.85,17.04-6.36,17.04s-9.23-8.08-6.36-17.04c3.45-10.75,2.85-17.04,6.36-17.04
	S188.48,290.56,191.12,299.38z"/>
</svg>
