<?xml version="1.0" encoding="utf-8"?>
<!-- Generator: Adobe Illustrator 24.0.1, SVG Export Plug-In . SVG Version: 6.00 Build 0)  -->
<svg version="1.1" id="Layer_1" xmlns="http://www.w3.org/2000/svg" xmlns:xlink="http://www.w3.org/1999/xlink" x="0px" y="0px"
	 viewBox="0 0 360 360" style="enable-background:new 0 0 360 360;" xml:space="preserve">
<style type="text/css">
	.st0{fill:#F5F5DC;}
</style>
<path class="st0" d="M87.5,240c22.92,0,41.5,18.58,41.5,41.5c0,2.21-0.18,4.38-0.51,6.5h104.52c0.27-22.69,18.74-41,41.49-41
	c4.73,0,9.27,0.8,13.5,2.26V99.79C288,84.44,275.56,72,260.21,72h-52.97c0.49,2.09,0.75,4.26,0.75,6.5c0,15.74-12.76,28.5-28.5,28.5
	S151,94.24,151,78.5c0-2.24,0.27-4.41,0.75-6.5H99.79C84.44,72,72,84.44,72,99.79V243C76.79,241.07,82.02,240,87.5,240z"/>
</svg>
