<?xml version="1.0" encoding="utf-8"?>
<!-- Generator: Adobe Illustrator 24.0.1, SVG Export Plug-In . SVG Version: 6.00 Build 0)  -->
<svg version="1.1" id="Layer_1" xmlns="http://www.w3.org/2000/svg" xmlns:xlink="http://www.w3.org/1999/xlink" x="0px" y="0px"
	 viewBox="0 0 360 360" style="enable-background:new 0 0 360 360;" xml:space="preserve">
<style type="text/css">
	.st0{fill:#F5F5DC;}
</style>
<path class="st0" d="M265.15,67.82h-26.37c0.94,2.32,1.47,4.85,1.47,7.51c0,11.09-8.99,20.08-20.08,20.08s-20.08-8.99-20.08-20.08
	c0-2.66,0.53-5.19,1.47-7.51H159.4c0.94,2.32,1.47,4.85,1.47,7.51c0,11.09-8.99,20.08-20.08,20.08c-11.09,0-20.08-8.99-20.08-20.08
	c0-2.66,0.53-5.19,1.47-7.51H94.85C82.23,67.82,72,78.05,72,90.67v170.29c0,12.62,10.23,22.85,22.85,22.85h66.8
	c-1.11-2.49-1.74-5.25-1.74-8.15c0-11.09,8.99-20.08,20.08-20.08s20.08,8.99,20.08,20.08c0,2.9-0.63,5.66-1.74,8.15h66.8
	c12.62,0,22.85-10.23,22.85-22.85V90.67C288,78.05,277.77,67.82,265.15,67.82z"/>
</svg>
