<?xml version="1.0" encoding="utf-8"?>
<!-- Generator: Adobe Illustrator 24.0.1, SVG Export Plug-In . SVG Version: 6.00 Build 0)  -->
<svg version="1.1" id="Layer_1" xmlns="http://www.w3.org/2000/svg" xmlns:xlink="http://www.w3.org/1999/xlink" x="0px" y="0px"
	 viewBox="0 0 360 360" style="enable-background:new 0 0 360 360;" xml:space="preserve">
<style type="text/css">
	.st0{fill:#F5F5DC;}
</style>
<path class="st0" d="M282.5,210c-16.29,0-29.5-13.21-29.5-29.5c0-16.29,13.21-29.5,29.5-29.5c1.88,0,3.72,0.18,5.5,0.52V99.79
	C288,84.44,275.56,72,260.21,72h-52.97c0.49,2.09,0.75,4.26,0.75,6.5c0,15.74-12.76,28.5-28.5,28.5S151,94.24,151,78.5
	c0-2.24,0.27-4.41,0.75-6.5H99.79C84.44,72,72,84.44,72,99.79v55.23c0.17,0,0.33-0.01,0.5-0.01c16.29,0,29.5,13.21,29.5,29.5
	c0,16.29-13.21,29.5-29.5,29.5c-0.17,0-0.33-0.01-0.5-0.01v46.23C72,275.56,84.44,288,99.79,288h50.23c0.27-16.06,13.36-29,29.49-29
	s29.22,12.94,29.49,29h51.23c15.35,0,27.79-12.44,27.79-27.79v-50.73C286.22,209.82,284.38,210,282.5,210z"/>
</svg>
