<?xml version="1.0" encoding="utf-8"?>
<!-- Generator: Adobe Illustrator 24.0.1, SVG Export Plug-In . SVG Version: 6.00 Build 0)  -->
<svg version="1.1" id="Layer_1" xmlns="http://www.w3.org/2000/svg" xmlns:xlink="http://www.w3.org/1999/xlink" x="0px" y="0px"
	 viewBox="0 0 360 360" style="enable-background:new 0 0 360 360;" xml:space="preserve">
<style type="text/css">
	.st0{fill:#F5F5DC;}
</style>
<path class="st0" d="M72,183.63v79.66C72,276.94,83.06,288,96.71,288h166.58c13.65,0,24.71-11.06,24.71-24.71v-16.52
	c-1.15,0.15-2.31,0.23-3.5,0.23c-15.19,0-27.5-12.31-27.5-27.5s12.31-27.5,27.5-27.5c1.19,0,2.35,0.08,3.5,0.23V96.71
	C288,83.06,276.94,72,263.29,72H96.71C83.06,72,72,83.06,72,96.71v32.66c1.46-0.24,2.97-0.37,4.5-0.37c15.19,0,27.5,12.31,27.5,27.5
	S91.69,184,76.5,184C74.97,184,73.46,183.87,72,183.63z"/>
</svg>
