<svg id="Layer_2" data-name="Layer 2" xmlns="http://www.w3.org/2000/svg" viewBox="0 0 415.02 374.06"><defs><style>.cls-1{fill:#fff;}</style></defs><title>oreo3</title><path d="M395.84,358.32s-386,27.09-386.82,0,30.61-23,36-30.48-27.77-.67-35.22-21.67,38.6-39.28,42.67-42-27.09-3.39-23-27.09,75.85-34.54,84-46,35.21-84,52.82-85.33,33.86,77.88,33.86,77.88l32.75-.83" transform="translate(-8.49 -12.1)"/><path d="M109.25,370.9c-58.86,0-92.11-3.22-99.2-9.63a4.16,4.16,0,0,1-1.55-2.94c-.56-18.87,14.34-23,25.21-26,5-1.38,9.3-2.57,10.92-4.8.44-.6.58-1.08.44-1.43-.46-1.17-3.89-1.8-7.85-2.53C28,321.88,14,319.3,9.35,306.34,2.83,288,35.72,271.92,48.09,265.87c2.07-1,3.56-1.73,4.12-2.11l.09-.06a17.54,17.54,0,0,0-3.55-1.47C41.36,259.66,26,254.31,29,237c2.56-14.89,31.17-24.76,54.17-32.7,14.42-5,26.87-9.27,29.9-13.56,2.3-3.26,6.11-11.41,10.94-21.73,12.41-26.51,29.4-62.83,42.26-63.82h.48c17.17,0,32.41,71,33.84,77.88l32.32-.81,0,1-33.18.83-.08-.42c-.17-.79-16.38-78.78-33.32-77.47-12.26.94-29.8,38.43-41.41,63.23-4.85,10.36-8.68,18.55-11,21.88-3.22,4.57-15.82,8.91-30.4,13.95-22.74,7.84-51,17.61-53.49,31.89-2.82,16.44,11.44,21.41,19.1,24.08,3,1,4.18,1.49,4.29,2.34a1.05,1.05,0,0,1-.59,1c-.62.42-2.06,1.12-4.23,2.18C36.39,272.73,4.11,288.51,10.32,306c4.4,12.4,18.05,14.91,27.08,16.57,4.79.88,8,1.46,8.63,3.16a2.48,2.48,0,0,1-.57,2.42c-1.83,2.51-6.3,3.75-11.47,5.18-11.14,3.08-25,6.91-24.46,25a3.13,3.13,0,0,0,1.21,2.2c24.67,22.32,381.47-2.44,385.07-2.7l.07,1c-.9.07-91.16,6.36-183.32,9.81Q152,370.89,109.25,370.9Z" transform="translate(-8.49 -12.1)"/><path d="M231.87,187.42s16.25-79.24,33.86-77.88,44.7,73.81,52.82,85.33,79.92,22.35,84,46-27.09,24.38-23,27.09,50.12,21,42.67,42S381.54,324.22,387,331.66s36.85,3.39,36,30.48-386.82,0-386.82,0" transform="translate(-8.49 -12.1)"/><path d="M322.75,374.72q-42.71,0-103.31-2.26C127.28,369,37,362.72,36.12,362.65l.07-1c3.6.25,360.41,25,385.07,2.69a3.13,3.13,0,0,0,1.21-2.2c.54-18.06-13.32-21.89-24.46-25-5.17-1.43-9.64-2.67-11.47-5.18a2.48,2.48,0,0,1-.57-2.42c.68-1.7,3.84-2.28,8.63-3.16,9-1.66,22.69-4.17,27.08-16.57,6.21-17.49-26.07-33.26-38.22-39.2-2.18-1.07-3.62-1.77-4.24-2.19a1.05,1.05,0,0,1-.59-1c.11-.85,1.32-1.3,4.29-2.34,7.66-2.67,21.92-7.64,19.1-24.07-2.45-14.29-30.75-24.06-53.48-31.9-14.59-5-27.18-9.38-30.41-14-2.35-3.33-6.18-11.52-11-21.89C295.49,148.47,278,111,265.69,110.05h-.42c-16.81,0-32.73,76.7-32.89,77.48l-1-.21c.66-3.22,16.26-78.3,33.93-78.3a3.77,3.77,0,0,1,.47,0c12.86,1,29.85,37.3,42.26,63.81,4.83,10.32,8.64,18.47,10.94,21.73,3,4.29,15.48,8.59,29.9,13.56,23,7.94,51.61,17.81,54.17,32.7,3,17.3-12.4,22.65-19.78,25.22a17.44,17.44,0,0,0-3.56,1.47.35.35,0,0,1,.09.06c.57.38,2.06,1.1,4.12,2.11,12.38,6.05,45.26,22.12,38.74,40.48-4.59,12.95-18.6,15.53-27.87,17.23-4,.73-7.39,1.36-7.85,2.53-.14.35,0,.83.44,1.43,1.62,2.23,5.93,3.42,10.92,4.8,10.88,3,25.77,7.12,25.21,26a4.2,4.2,0,0,1-1.55,2.94C414.86,371.5,381.6,374.72,322.75,374.72Zm56.89-107.27Z" transform="translate(-8.49 -12.1)"/><circle cx="151.52" cy="35.6" r="5.4"/><circle cx="207.73" cy="35.6" r="5.4"/><circle cx="263.5" cy="35.6" r="5.4"/><path class="cls-1" d="M139.43,195.36a39.83,39.83,0,0,0-30.77,5.86c-3.19,2.15-.19,7.35,3,5.18a33.78,33.78,0,0,1,26.15-5.26c3.77.79,5.38-5,1.6-5.78Z" transform="translate(-8.49 -12.1)"/><path class="cls-1" d="M143.85,210.86a66.54,66.54,0,0,0-10.16,10.92c-1,1.3-.2,3.34,1.07,4.1a3.07,3.07,0,0,0,4.11-1.07,59.69,59.69,0,0,1,9.22-9.71c2.95-2.5-1.31-6.73-4.24-4.24Z" transform="translate(-8.49 -12.1)"/><path class="cls-1" d="M161.17,220.88V230c0,3.86,6,3.87,6,0v-9.09c0-3.86-6-3.86-6,0Z" transform="translate(-8.49 -12.1)"/><path class="cls-1" d="M256.9,219.07a11.91,11.91,0,0,0,2.19,6.38,3.09,3.09,0,0,0,4.1,1.08,3,3,0,0,0,1.08-4.11,9.05,9.05,0,0,1-.72-1.1c0-.07-.37-.84-.24-.48a7.94,7.94,0,0,1-.28-1c0-.21-.1-.42-.13-.64q.06.38,0-.18a3,3,0,0,0-6,0Z" transform="translate(-8.49 -12.1)"/><path class="cls-1" d="M275,212a38.2,38.2,0,0,1,16.11,12.37c2.29,3.05,7.51.06,5.18-3a45.55,45.55,0,0,0-19.7-15.12c-3.58-1.45-5.13,4.35-1.59,5.78Z" transform="translate(-8.49 -12.1)"/><path class="cls-1" d="M292.87,201.66a22.38,22.38,0,0,1,18.29,4.15c3.11,2.29,6.11-2.92,3-5.18a28.31,28.31,0,0,0-22.92-4.76c-3.77.8-2.17,6.59,1.6,5.79Z" transform="translate(-8.49 -12.1)"/><path d="M70.23,215.63c15.84-18.4,39.71-24.81,63-27.11,3.81-.38,3.85-6.39,0-6C108.42,185,82.88,191.76,66,211.38c-2.51,2.92,1.72,7.18,4.24,4.25Z" transform="translate(-8.49 -12.1)"/><path d="M306.61,188.68c18.3-3.4,31.85,11.73,40.1,26,1.93,3.34,7.12.32,5.18-3C342.12,194.75,326.2,179,305,182.9c-3.79.7-2.19,6.49,1.59,5.78Z" transform="translate(-8.49 -12.1)"/><path d="M380.44,273.32c13.67-2.33,28.2,5.68,29.16,20.47.25,3.83,6.25,3.86,6,0-1.23-18.94-19.09-29.26-36.75-26.25-3.8.65-2.19,6.43,1.59,5.78Z" transform="translate(-8.49 -12.1)"/><path d="M48.43,324.71a76.77,76.77,0,0,0-11-.06c-3.35.24-7.08.41-10.22,1.68s-4.78,3.78-6.08,6.7a35.89,35.89,0,0,0-2.81,10.1c-.24,1.91,2.76,1.89,3,0a31.23,31.23,0,0,1,2.49-8.79c1.24-2.73,2.68-4.83,5.71-5.62a45.79,45.79,0,0,1,9.11-1.14,76.94,76.94,0,0,1,9.84.13c1.92.14,1.91-2.86,0-3Z" transform="translate(-8.49 -12.1)"/><path d="M57.05,261a21.18,21.18,0,0,0-25.42,13.62c-.65,1.82,2.25,2.6,2.9.79A18.41,18.41,0,0,1,56.26,263.9c1.87.47,2.67-2.42.79-2.89Z" transform="translate(-8.49 -12.1)"/><path d="M200.12,190.73c4.85-7,11.48-5.4,18.78-5.13,5.07.18,10.66-1.54,12.55-6.73,3.91-10.74-10.16-18.57-17.26-9.72-2.8,3.48,2.12,8.46,4.95,4.95,1.46-1.83,4.54-3.12,5.81,0s-2.31,4.4-4.61,4.55c-3.5.22-7-.9-10.46-.71-6.59.35-12.11,3.93-15.8,9.29-2.56,3.72,3.5,7.22,6,3.53Z" transform="translate(-8.49 -12.1)"/><path d="M235.81,174.36a28.55,28.55,0,0,0-7.73,8.61l6.4,2.7c3.25-9.19,9.7-16.44,16.27-23.44,3.08-3.28-1.86-8.24-4.95-4.95-7.44,7.93-14.39,16.14-18.07,26.53-1.35,3.79,4.44,6.07,6.39,2.69a19.88,19.88,0,0,1,5.22-6.1c3.53-2.69,0-8.78-3.53-6Z" transform="translate(-8.49 -12.1)"/><path d="M189,184.16a54.21,54.21,0,0,1,24.7,7.08c3.93,2.22,7.46-3.83,3.53-6.05a62.25,62.25,0,0,0-28.23-8c-4.5-.2-4.49,6.8,0,7Z" transform="translate(-8.49 -12.1)"/><path d="M392.39,236.6A23.4,23.4,0,0,1,404.66,247a22,22,0,0,1,2.7,7.6c.13.93.34,2.59-.82,2.95a1.13,1.13,0,0,1-1.41-1.46c.63-2.5-3.23-3.57-3.86-1.07a5.18,5.18,0,0,0,5.31,6.56c3.87-.37,5.19-4,4.72-7.41a26.81,26.81,0,0,0-8.68-16,27.2,27.2,0,0,0-9.17-5.45c-2.43-.87-3.47,3-1.06,3.85Z" transform="translate(-8.49 -12.1)"/><path d="M42.2,369.6c34.61,22.86,77.21,12.36,114.07,1.85,6.8-1.93,3.91-12.55-2.92-10.6-34,9.68-73.56,20.41-105.6-.74-5.92-3.92-11.44,5.61-5.55,9.49Z" transform="translate(-8.49 -12.1)"/><path d="M137.56,366.81c24.48,5.05,53.23,14.3,76.25-.23,6-3.76.46-13.29-5.55-9.49-20.12,12.69-46.43,3.51-67.78-.88-6.91-1.43-9.86,9.17-2.92,10.6Z" transform="translate(-8.49 -12.1)"/><path d="M137,377.91c13.89,4.54,28.29,9.1,43.09,8.12,14-.92,27-6,39.7-11.72,6.44-2.89.86-12.38-5.56-9.5-11.33,5.08-23.37,9.85-35.93,10.31-13.23.49-26-3.76-38.37-7.82-6.75-2.21-9.64,8.41-2.93,10.61Z" transform="translate(-8.49 -12.1)"/><path d="M201,370.16c8.64,2,17,5.16,25.69,6.83a104.69,104.69,0,0,0,24.86,1.84,107.13,107.13,0,0,0,47.51-13.75c6.17-3.48.63-13-5.55-9.5A94.94,94.94,0,0,1,249.9,367.9a93,93,0,0,1-21.9-1.84c-8.14-1.71-15.95-4.64-24.05-6.51-6.89-1.58-9.83,9-2.92,10.61Z" transform="translate(-8.49 -12.1)"/><path d="M408.44,355.09a61.5,61.5,0,0,1-37.34,15.26c-15.14.69-29.78-4.68-44.93-4-7.05.31-7.09,11.31,0,11,16.77-.72,32.95,5.57,49.78,3.62a73.77,73.77,0,0,0,40.26-18.07c5.34-4.67-2.47-12.43-7.77-7.78Z" transform="translate(-8.49 -12.1)"/><path d="M325.4,362.63a157.9,157.9,0,0,1-49.24,0c-6.92-1.1-9.91,9.5-2.92,10.6a174.55,174.55,0,0,0,55.08,0c7-1.1,4-11.71-2.92-10.61Z" transform="translate(-8.49 -12.1)"/><path d="M266.82,372.09c22.29,7.41,48.57,14.32,69.47-.62,5.71-4.08.23-13.62-5.55-9.49-18.46,13.18-41.45,6-61-.5-6.73-2.23-9.62,8.39-2.92,10.61Z" transform="translate(-8.49 -12.1)"/><path d="M214.84,83.79c-26.49,0-51.45-3.42-70.28-9.65-20.31-6.72-31-15.77-31-26.19s10.74-19.48,31.05-26.2c18.83-6.22,43.79-9.65,70.28-9.65s51.46,3.43,70.28,9.65c20.32,6.72,31.05,15.78,31.05,26.2s-10.73,19.47-31.05,26.19C266.3,80.37,241.34,83.79,214.84,83.79Zm0-64.69c-25.77,0-49.94,3.3-68.08,9.3C130.32,33.83,120.51,41.14,120.51,48c0,13.64,38.74,28.84,94.33,28.84,25.77,0,50-3.3,68.08-9.29,16.44-5.44,26.25-12.75,26.25-19.55C309.17,34.3,270.43,19.1,214.84,19.1Z" transform="translate(-8.49 -12.1)"/><path d="M140.1,70.06a32,32,0,0,0-3.66,30.7,2.58,2.58,0,0,0,3.07,1.75,2.53,2.53,0,0,0,1.75-3.08,27.44,27.44,0,0,1,3.16-26.85,2.52,2.52,0,0,0-.9-3.42,2.56,2.56,0,0,0-3.42.9Z" transform="translate(-8.49 -12.1)"/><path class="cls-1" d="M127.23,208.94H121a.5.5,0,0,0,0,1h6.21a.5.5,0,0,0,0-1Z" transform="translate(-8.49 -12.1)"/><path class="cls-1" d="M129.65,211.84a5.76,5.76,0,0,0-3.48,2.17.51.51,0,0,0,.18.69.51.51,0,0,0,.68-.18l0,0,.07-.07a.8.8,0,0,1,.15-.17c.1-.11.21-.22.32-.32l.17-.14,0,0,.08-.06.39-.26.4-.22.21-.09s0,0,0,0l.12,0a4.72,4.72,0,0,1,.89-.25.5.5,0,0,0,.35-.62.51.51,0,0,0-.61-.35Z" transform="translate(-8.49 -12.1)"/><path class="cls-1" d="M150.27,222.61l-1.83,1.83a.5.5,0,0,0,.71.7l1.83-1.82a.52.52,0,0,0,0-.71.51.51,0,0,0-.71,0Z" transform="translate(-8.49 -12.1)"/><path class="cls-1" d="M153.05,223.33v4.75a.5.5,0,0,0,1,0v-4.75a.5.5,0,0,0-1,0Z" transform="translate(-8.49 -12.1)"/><path class="cls-1" d="M268.66,218.89l1.45,7.27c.12.63,1.09.36,1-.27l-1.44-7.26c-.13-.63-1.09-.37-1,.26Z" transform="translate(-8.49 -12.1)"/><path class="cls-1" d="M271.26,217.47a4.68,4.68,0,0,1,2.95.52.5.5,0,0,0,.68-.18.49.49,0,0,0-.18-.68,5.63,5.63,0,0,0-3.71-.62.49.49,0,0,0-.35.61.52.52,0,0,0,.61.35Z" transform="translate(-8.49 -12.1)"/><path class="cls-1" d="M292.58,208.7a6.62,6.62,0,0,1,3.89,1.67.52.52,0,0,0,.71,0,.51.51,0,0,0,0-.71,7.74,7.74,0,0,0-4.6-2,.5.5,0,0,0,0,1Z" transform="translate(-8.49 -12.1)"/><path class="cls-1" d="M296.51,205.39h3.33a.5.5,0,0,0,0-1h-3.33a.5.5,0,0,0,0,1Z" transform="translate(-8.49 -12.1)"/></svg>