<?xml version="1.0" encoding="utf-8"?>
<!-- Generator: Adobe Illustrator 23.0.6, SVG Export Plug-In . SVG Version: 6.00 Build 0)  -->
<svg version="1.1" id="Layer_1" xmlns="http://www.w3.org/2000/svg" xmlns:xlink="http://www.w3.org/1999/xlink" x="0px" y="0px"
	 viewBox="0 0 432 432" style="enable-background:new 0 0 432 432;" xml:space="preserve">
<style type="text/css">
	.st0{fill:#FFFFFF;}
</style>
<g>
	<path d="M249.17,247.73h-52.62c-6.95,0-12.64-5.69-12.64-12.64v-10.68c0-6.95,5.69-12.64,12.64-12.64h52.62
		c6.95,0,12.64,5.69,12.64,12.64v10.68C261.81,242.04,256.12,247.73,249.17,247.73z"/>
	<g>
		<path d="M242.63,250.72h-41.94c-11.56,0-20.97-9.41-20.97-20.97c0-11.56,9.41-20.97,20.97-20.97h41.94
			c11.56,0,20.97,9.41,20.97,20.97C263.6,241.31,254.19,250.72,242.63,250.72z M200.69,214.77c-8.26,0-14.98,6.72-14.98,14.98
			c0,8.26,6.72,14.98,14.98,14.98h41.94c8.26,0,14.98-6.72,14.98-14.98c0-8.26-6.72-14.98-14.98-14.98H200.69z"/>
		<path d="M242.63,251.33h-41.94c-11.9,0-21.57-9.68-21.57-21.57c0-11.9,9.68-21.57,21.57-21.57h41.94
			c11.9,0,21.57,9.68,21.57,21.57C264.2,241.65,254.53,251.33,242.63,251.33z M200.69,209.38c-11.23,0-20.37,9.14-20.37,20.37
			s9.14,20.37,20.37,20.37h41.94c11.23,0,20.37-9.14,20.37-20.37s-9.14-20.37-20.37-20.37H200.69z M242.63,245.33h-41.94
			c-8.59,0-15.58-6.99-15.58-15.58c0-8.59,6.99-15.58,15.58-15.58h41.94c8.59,0,15.58,6.99,15.58,15.58
			C258.21,238.34,251.22,245.33,242.63,245.33z M200.69,215.37c-7.93,0-14.38,6.45-14.38,14.38c0,7.93,6.45,14.38,14.38,14.38h41.94
			c7.93,0,14.38-6.45,14.38-14.38c0-7.93-6.45-14.38-14.38-14.38H200.69z"/>
	</g>
	<g>
		<path d="M177.89,167.97c2.91-4.17,2.32-9.85-1.43-13.29c-10.04-9.23-30.42-25.12-47.69-20.81c-23.97,5.99-47.94,41.94-44.94,56.92
			c3,14.98,41.94,17.98,56.92,14.98C151.84,203.57,169.45,180.08,177.89,167.97z"/>
		<path d="M127.86,208.31c-18.14,0-42.97-4.66-45.48-17.22c-3.33-16.66,22.29-52.73,46.05-58.67c17.8-4.46,38.38,11.34,49.06,21.16
			c4.26,3.92,4.97,10.47,1.64,15.25c0,0,0,0,0,0c-9.32,13.37-26.66,36.14-38.06,38.42C137.65,207.93,133.03,208.31,127.86,208.31z
			 M134.94,134.64c-1.96,0-3.9,0.22-5.79,0.69c-23.52,5.88-46.62,41.26-43.83,55.18c2.71,13.55,40.55,16.73,55.16,13.81
			c7.58-1.52,20.77-15.07,36.19-37.2v0c2.48-3.55,1.95-8.42-1.21-11.33C166.4,147.47,149.99,134.64,134.94,134.64z M177.9,167.98
			h0.03H177.9z"/>
	</g>
	<g>
		<path class="st0" d="M135.62,169.83h-10.68c-4.48,0-8.14-3.66-8.14-8.14V157c0-4.48,3.66-8.14,8.14-8.14h10.68
			c4.48,0,8.14,3.66,8.14,8.14v4.69C143.76,166.17,140.1,169.83,135.62,169.83z"/>
	</g>
	<g>
		<path class="st0" d="M147.67,178.52h-1.78c-1.98,0-3.61-1.62-3.61-3.61v-1.78c0-1.98,1.62-3.61,3.61-3.61h1.78
			c1.98,0,3.61,1.62,3.61,3.61v1.78C151.27,176.9,149.65,178.52,147.67,178.52z"/>
	</g>
	<g>
		<path d="M265.19,169.3c-2.91-4.17-2.32-9.85,1.43-13.29c10.04-9.23,30.42-25.12,47.69-20.81c23.97,5.99,47.94,41.94,44.94,56.92
			c-3,14.98-41.94,17.98-56.92,14.98C291.24,204.89,273.63,181.41,265.19,169.3z"/>
		<path d="M315.22,209.64c-5.17,0-9.79-0.38-13.2-1.06c-11.4-2.28-28.74-25.05-38.06-38.42l0,0c-3.33-4.77-2.62-11.33,1.64-15.25
			c10.68-9.81,31.24-25.61,49.06-21.16c23.75,5.94,49.38,42.01,46.05,58.67C358.2,204.98,333.36,209.64,315.22,209.64z
			 M308.14,135.97c-15.05,0-31.46,12.83-40.52,21.15c-3.17,2.91-3.68,7.78-1.21,11.33l0,0c15.42,22.12,28.61,35.68,36.19,37.2
			c14.62,2.92,52.45-0.26,55.16-13.81c2.78-13.92-20.32-49.3-43.83-55.18C312.04,136.18,310.1,135.97,308.14,135.97z"/>
	</g>
	<g>
		<path class="st0" d="M305.78,171.33h-12.46c-3.99,0-7.25-3.26-7.25-7.25v-6.47c0-3.99,3.26-7.25,7.25-7.25h12.46
			c3.99,0,7.25,3.26,7.25,7.25v6.47C313.04,168.07,309.77,171.33,305.78,171.33z"/>
	</g>
	<g>
		<path class="st0" d="M315.77,182.72h-2.38c-1.82,0-3.3-1.49-3.3-3.3v-2.38c0-1.82,1.49-3.3,3.3-3.3h2.38c1.82,0,3.3,1.49,3.3,3.3
			v2.38C319.07,181.24,317.59,182.72,315.77,182.72z"/>
	</g>
	<path d="M170.73,304.65c-3.31,0-5.99-2.68-5.99-5.99s2.68-5.99,5.99-5.99c17.79,0,38.17-13.25,44.94-18.02v-26.92
		c0-3.31,2.68-5.99,5.99-5.99c3.31,0,5.99,2.68,5.99,5.99v29.96c0,1.85-0.85,3.6-2.31,4.73
		C224.17,283.33,196.46,304.65,170.73,304.65z"/>
	<path d="M281.58,304.65c-22.23,0-61.12-20.8-62.76-21.69c-2.91-1.57-4-5.2-2.43-8.12c1.57-2.91,5.2-4,8.11-2.43
		c10.47,5.63,41.14,20.26,57.08,20.26c3.31,0,5.99,2.68,5.99,5.99S284.89,304.65,281.58,304.65z"/>
	<path d="M224.42,314c-2.1,0-4.27-0.13-6.5-0.41c-30.81-3.85-34.86-13.68-35.17-17.73c-0.25-3.3,2.22-6.18,5.52-6.43
		c2.94-0.23,5.51,1.68,6.24,4.41c0.65,0.83,5.09,5.39,24.9,7.86c20.72,2.6,34.6-11.84,34.74-11.98c2.28-2.41,6.07-2.52,8.47-0.24
		c2.4,2.27,2.52,6.07,0.24,8.47C262.19,298.66,247.41,314,224.42,314z M194.7,294.94C194.7,294.94,194.7,294.94,194.7,294.94
		C194.7,294.94,194.7,294.94,194.7,294.94z M194.7,294.93L194.7,294.93L194.7,294.93z M194.41,293.71L194.41,293.71L194.41,293.71z"
		/>
	<g>
		<path d="M154.54,251h-5.99c-0.82,0-1.5-0.68-1.5-1.5v-5.99c0-0.82,0.68-1.5,1.5-1.5h5.99c0.82,0,1.5,0.68,1.5,1.5v5.99
			C156.04,250.32,155.37,251,154.54,251z"/>
	</g>
	<g>
		<path d="M115.59,251h-5.99c-0.82,0-1.5-0.68-1.5-1.5v-5.99c0-0.82,0.68-1.5,1.5-1.5h5.99c0.82,0,1.5,0.68,1.5,1.5v5.99
			C117.09,250.32,116.42,251,115.59,251z"/>
	</g>
	<g>
		<path d="M136.57,274.97h-5.99c-0.82,0-1.5-0.67-1.5-1.5v-5.99c0-0.82,0.68-1.5,1.5-1.5h5.99c0.82,0,1.5,0.68,1.5,1.5v5.99
			C138.07,274.29,137.39,274.97,136.57,274.97z"/>
	</g>
	<g>
		<path d="M342.09,251h-5.99c-0.82,0-1.5-0.68-1.5-1.5v-5.99c0-0.82,0.68-1.5,1.5-1.5h5.99c0.83,0,1.5,0.68,1.5,1.5v5.99
			C343.59,250.32,342.91,251,342.09,251z"/>
	</g>
	<g>
		<path d="M303.14,251h-5.99c-0.82,0-1.5-0.68-1.5-1.5v-5.99c0-0.82,0.68-1.5,1.5-1.5h5.99c0.82,0,1.5,0.68,1.5,1.5v5.99
			C304.64,250.32,303.96,251,303.14,251z"/>
	</g>
	<g>
		<path d="M324.11,274.97h-5.99c-0.83,0-1.5-0.67-1.5-1.5v-5.99c0-0.82,0.67-1.5,1.5-1.5h5.99c0.83,0,1.5,0.68,1.5,1.5v5.99
			C325.61,274.29,324.94,274.97,324.11,274.97z"/>
	</g>
</g>
</svg>
